<svg width="112" height="35" viewBox="0 0 112 35" fill="none" xmlns="http://www.w3.org/2000/svg">
<path d="M39.176 3.66401L34.712 5.20001L35.672 3.42401V30.64L34.712 29.248L39.176 30.544V34H25.784V30.544L30.44 29.2L29.336 30.64V7.55201L30.344 7.60001L21.56 25.216L17.24 25.456L8.79203 7.50401H9.80003V30.64L9.03203 29.344L13.352 30.544V34H0.728027V30.544L5.19203 29.248L4.28003 30.64V3.42401L5.19203 5.10401L0.728027 3.90401V0.448008L12.68 0.208008L20.6 18.592H19.784L28.088 0.448008L39.176 0.208008V3.66401Z" fill="#141414"/>
<path d="M63.4329 30.592L62.5209 29.248L66.6489 30.544V33.952L58.2489 34.384L57.3369 29.776L57.8169 29.92C56.5369 31.488 55.1449 32.656 53.6409 33.424C52.1369 34.192 50.5849 34.576 48.9849 34.576C46.9369 34.576 45.2409 33.92 43.8969 32.608C42.5529 31.296 41.8809 29.408 41.8809 26.944C41.8809 25.12 42.2649 23.68 43.0329 22.624C43.8329 21.536 44.9849 20.752 46.4889 20.272C47.9929 19.792 49.8169 19.552 51.9609 19.552H57.1929L56.7129 20.08V16.912C56.7129 15.408 56.3449 14.336 55.6089 13.696C54.9049 13.056 53.8649 12.736 52.4889 12.736C51.8169 12.736 51.0969 12.8 50.3289 12.928C49.5609 13.056 48.7289 13.248 47.8329 13.504L48.5049 12.784L47.8809 16.672H43.7049L43.3209 9.66401C45.4969 9.02401 47.4809 8.56001 49.2729 8.27201C51.0969 7.95201 52.7609 7.79201 54.2649 7.79201C57.2409 7.79201 59.5129 8.43201 61.0809 9.71201C62.6489 10.992 63.4329 12.976 63.4329 15.664V30.592ZM48.6489 26.272C48.6489 27.456 48.9209 28.336 49.4649 28.912C50.0409 29.456 50.7609 29.728 51.6249 29.728C52.4249 29.728 53.3049 29.488 54.2649 29.008C55.2249 28.496 56.1369 27.808 57.0009 26.944L56.7129 28.096V22.624L57.1929 23.104H53.0649C51.4009 23.104 50.2489 23.36 49.6089 23.872C48.9689 24.384 48.6489 25.184 48.6489 26.272Z" fill="#141414"/>
<path d="M68.5952 34V30.544L72.4832 29.44L71.8111 30.448V12.016L72.5792 13.168L68.5952 11.968V8.51201L77.0432 8.12801L77.9072 12.688L77.0432 12.496C78.4832 10.992 79.9072 9.84001 81.3152 9.04001C82.7232 8.20801 84.2272 7.79201 85.8272 7.79201C86.8512 7.79201 87.9392 7.95201 89.0912 8.27201L88.6592 17.152H84.7712L84.0512 11.968L84.6752 13.264C84.4832 13.2 84.2752 13.152 84.0512 13.12C83.8592 13.088 83.6672 13.072 83.4752 13.072C82.4832 13.072 81.4912 13.376 80.4992 13.984C79.5392 14.592 78.7072 15.376 78.0032 16.336L78.5312 14.512V30.448L77.7632 29.44L82.5152 30.544V34H68.5952Z" fill="#141414"/>
<path d="M97.9715 14.848C97.9715 15.584 98.2915 16.176 98.9315 16.624C99.5715 17.072 100.388 17.456 101.38 17.776C102.404 18.096 103.476 18.432 104.596 18.784C105.748 19.136 106.82 19.6 107.812 20.176C108.836 20.72 109.668 21.456 110.308 22.384C110.948 23.312 111.268 24.512 111.268 25.984C111.268 27.872 110.756 29.456 109.732 30.736C108.708 32.016 107.316 32.976 105.556 33.616C103.796 34.256 101.812 34.576 99.6035 34.576C98.3235 34.576 96.9635 34.464 95.5235 34.24C94.1155 34.016 92.6595 33.712 91.1555 33.328L91.4435 26.08H95.6675L96.1955 30.304L95.6195 29.488C96.2595 29.68 96.9635 29.84 97.7315 29.968C98.4995 30.064 99.1715 30.112 99.7475 30.112C100.58 30.112 101.348 30 102.052 29.776C102.788 29.552 103.38 29.232 103.828 28.816C104.308 28.368 104.548 27.808 104.548 27.136C104.548 26.368 104.228 25.76 103.588 25.312C102.948 24.864 102.116 24.48 101.092 24.16C100.1 23.84 99.0435 23.504 97.9235 23.152C96.8355 22.8 95.7795 22.336 94.7555 21.76C93.7635 21.184 92.9475 20.416 92.3075 19.456C91.6675 18.496 91.3475 17.248 91.3475 15.712C91.3475 13.856 91.8115 12.352 92.7395 11.2C93.6675 10.016 94.8995 9.15201 96.4355 8.60801C98.0035 8.06401 99.7155 7.79201 101.572 7.79201C102.884 7.79201 104.276 7.92001 105.748 8.17601C107.22 8.40001 108.724 8.73601 110.26 9.18401L110.02 15.616H105.748L104.98 11.824L105.892 12.832C104.388 12.416 103.06 12.208 101.908 12.208C100.724 12.208 99.7635 12.448 99.0275 12.928C98.3235 13.376 97.9715 14.016 97.9715 14.848Z" fill="#141414"/>
</svg>
